<svg viewBox="0 0 800 600" xmlns="http://www.w3.org/2000/svg">
  <!-- Background -->
  <rect width="800" height="600" fill="#f8f9fa"/>
  
  <!-- Title -->
  <text x="400" y="30" text-anchor="middle" font-size="24" font-weight="bold" fill="#333">RDQ System Architecture</text>
  
  <!-- Roblox Platform -->
  <g>
    <rect x="50" y="80" width="200" height="100" rx="10" fill="#ee4c2c" stroke="#c73e21" stroke-width="2"/>
    <text x="150" y="115" text-anchor="middle" font-size="16" font-weight="bold" fill="white">Roblox Platform</text>
    <text x="150" y="140" text-anchor="middle" font-size="12" fill="white">User Data Deletion</text>
    <text x="150" y="160" text-anchor="middle" font-size="12" fill="white">Request</text>
  </g>
  
  <!-- Cloudflare Workers -->
  <g>
    <rect x="350" y="200" width="200" height="120" rx="10" fill="#f38020" stroke="#d16910" stroke-width="2"/>
    <text x="450" y="235" text-anchor="middle" font-size="16" font-weight="bold" fill="white">Cloudflare Workers</text>
    <text x="450" y="255" text-anchor="middle" font-size="12" fill="white">RDQ API</text>
    <rect x="370" y="270" width="160" height="30" rx="5" fill="#fff" opacity="0.3"/>
    <text x="450" y="290" text-anchor="middle" font-size="11" fill="white">Webhook Handler</text>
  </g>
  
  <!-- D1 Database -->
  <g>
    <rect x="350" y="380" width="200" height="80" rx="10" fill="#4a5568" stroke="#2d3748" stroke-width="2"/>
    <text x="450" y="410" text-anchor="middle" font-size="16" font-weight="bold" fill="white">D1 Database</text>
    <text x="450" y="435" text-anchor="middle" font-size="12" fill="white">Deletion Queue</text>
  </g>
  
  <!-- Discord -->
  <g>
    <rect x="600" y="200" width="150" height="80" rx="10" fill="#5865f2" stroke="#4752c4" stroke-width="2"/>
    <text x="675" y="230" text-anchor="middle" font-size="16" font-weight="bold" fill="white">Discord</text>
    <text x="675" y="250" text-anchor="middle" font-size="12" fill="white">Notifications</text>
    <text x="675" y="265" text-anchor="middle" font-size="10" fill="white">(Optional)</text>
  </g>
  
  <!-- Roblox Studio / External Apps -->
  <g>
    <rect x="50" y="350" width="200" height="100" rx="10" fill="#00a2ff" stroke="#0082cc" stroke-width="2"/>
    <text x="150" y="385" text-anchor="middle" font-size="16" font-weight="bold" fill="white">Roblox Studio /</text>
    <text x="150" y="405" text-anchor="middle" font-size="16" font-weight="bold" fill="white">External Apps</text>
    <text x="150" y="425" text-anchor="middle" font-size="12" fill="white">(Python, etc.)</text>
  </g>
  
  <!-- Arrows and Labels -->
  <!-- Roblox to Cloudflare -->
  <defs>
    <marker id="arrowhead" markerWidth="10" markerHeight="7" refX="9" refY="3.5" orient="auto">
      <polygon points="0 0, 10 3.5, 0 7" fill="#333"/>
    </marker>
  </defs>
  
  <path d="M 250 130 Q 300 130 300 200 L 350 200" stroke="#333" stroke-width="2" fill="none" marker-end="url(#arrowhead)"/>
  <text x="280" y="120" font-size="11" fill="#666">POST /webhook</text>
  <text x="260" y="135" font-size="10" fill="#666">Signature Verification</text>
  
  <!-- Cloudflare to D1 -->
  <path d="M 450 320 L 450 380" stroke="#333" stroke-width="2" fill="none" marker-end="url(#arrowhead)"/>
  <text x="460" y="355" font-size="11" fill="#666">Store</text>
  
  <!-- Cloudflare to Discord -->
  <path d="M 550 240 L 600 240" stroke="#333" stroke-width="2" fill="none" marker-end="url(#arrowhead)"/>
  <text x="560" y="230" font-size="10" fill="#666">Notify</text>
  
  <!-- External Apps to Cloudflare -->
  <path d="M 250 400 Q 300 400 300 300 L 350 280" stroke="#333" stroke-width="2" fill="none" marker-end="url(#arrowhead)"/>
  <text x="260" y="390" font-size="10" fill="#666">GET /users</text>
  <text x="240" y="405" font-size="10" fill="#666">DELETE /users</text>
  <text x="270" y="420" font-size="10" fill="#666">API Key Auth</text>
  
  <!-- API Endpoints Box -->
  <g>
    <rect x="50" y="500" width="700" height="80" rx="8" fill="#e2e8f0" stroke="#cbd5e0" stroke-width="1"/>
    <text x="60" y="520" font-size="12" font-weight="bold" fill="#2d3748">API Endpoints:</text>
    <text x="60" y="540" font-size="11" fill="#4a5568">• POST /webhook - Receive deletion requests from Roblox</text>
    <text x="60" y="555" font-size="11" fill="#4a5568">• GET /universes/{id}/users - Get pending users for a universe</text>
    <text x="60" y="570" font-size="11" fill="#4a5568">• DELETE /universes/{id}/users - Mark deletions as completed</text>
  </g>
</svg>